<svg width="350" height="304" viewBox="0 0 350 304" fill="none" xmlns="http://www.w3.org/2000/svg">
<g clip-path="url(#clip0_4_890)">
<path d="M337.402 248.293H12.5978C5.6515 248.293 0 242.526 0 235.436V195.538H350V235.436C350 242.526 344.349 248.293 337.402 248.293Z" fill="#E6E6E6"/>
<path d="M217.037 241.619H134.208V302.002H217.037V241.619Z" fill="#E6E6E6"/>
<path d="M222.02 294.375H129.226V302.002H222.02V294.375Z" fill="#E6E6E6"/>
<path d="M349.689 212.381H0V9.54669C0 4.68155 3.87836 0.723267 8.64526 0.723267H341.043C345.81 0.723267 349.689 4.68155 349.689 9.54669V212.381Z" fill="#3F3D56"/>
<path d="M341.281 9.93958H8.09619V201.258H341.281V9.93958Z" fill="white"/>
<path d="M185.192 133.026L177.52 129.317C180.667 133.799 183.378 140.798 184.829 146.368C187.287 141.18 191.249 134.832 195.171 131.039L187.063 133.168C192.059 108.178 210.85 90.237 232.37 90.237L232.674 89.3344C210.197 89.3344 190.293 107.026 185.192 133.026Z" fill="#3F3D56"/>
<path d="M220.501 171.104H172.029C169.973 171.104 168.3 169.396 168.3 167.298C168.3 165.2 169.973 163.493 172.029 163.493H220.501C222.557 163.493 224.23 165.2 224.23 167.298C224.23 169.396 222.557 171.104 220.501 171.104Z" fill="#6C63FF"/>
<path d="M285 171.104H236.527C234.472 171.104 232.799 169.396 232.799 167.298C232.799 165.2 234.472 163.493 236.527 163.493H285C287.056 163.493 288.728 165.2 288.728 167.298C288.728 169.396 287.056 171.104 285 171.104Z" fill="#E6E6E6"/>
<path d="M256.305 67.5788H209.187C207.999 67.5788 207.033 66.5923 207.033 65.38C207.033 64.1676 207.999 63.1816 209.187 63.1816H256.305C257.492 63.1816 258.459 64.1677 258.459 65.38C258.459 66.5923 257.492 67.5788 256.305 67.5788Z" fill="#3F3D56"/>
<path d="M281.588 91.0363H183.903C182.716 91.0363 181.749 90.0499 181.749 88.8375C181.749 87.6252 182.716 86.6392 183.903 86.6392H281.588C282.776 86.6392 283.742 87.6252 283.742 88.8375C283.742 90.0499 282.776 91.0363 281.588 91.0363Z" fill="#3F3D56"/>
<path d="M21.1797 302.564C21.1797 302.959 21.4905 303.277 21.8775 303.277H328.123C328.51 303.277 328.82 302.959 328.82 302.564C328.82 302.169 328.51 301.852 328.123 301.852H21.8775C21.4905 301.852 21.1797 302.169 21.1797 302.564Z" fill="#3F3D56"/>
<path d="M189.329 34.3185C194.184 43.322 204.488 47.1871 204.488 47.1871C204.488 47.1871 206.92 36.4545 202.065 27.4509C197.21 18.4474 186.907 14.5824 186.907 14.5824C186.907 14.5824 184.474 25.315 189.329 34.3185Z" fill="#2F2E41"/>
<path d="M192.666 31.3564C201.431 36.6298 204.807 47.104 204.807 47.104C204.807 47.104 193.972 49.0286 185.207 43.7552C176.442 38.4819 173.066 28.0077 173.066 28.0077C173.066 28.0077 183.901 26.0831 192.666 31.3564Z" fill="#6C63FF"/>
<path d="M50.8828 35.2706C50.8828 35.2706 56.5931 51.523 53.0791 54.0234C49.565 56.5238 64.939 76.9435 64.939 76.9435L83.3877 71.9428L73.2848 54.8569C73.2848 54.8569 71.9671 37.771 71.9671 35.2706C71.9671 32.7702 50.8828 35.2706 50.8828 35.2706Z" fill="#A0616A"/>
<path opacity="0.1" d="M50.8828 35.2706C50.8828 35.2706 56.5931 51.523 53.0791 54.0234C49.565 56.5238 64.939 76.9435 64.939 76.9435L83.3877 71.9428L73.2848 54.8569C73.2848 54.8569 71.9671 37.771 71.9671 35.2706C71.9671 32.7702 50.8828 35.2706 50.8828 35.2706Z" fill="black"/>
<path d="M41.298 151.121C41.298 151.121 39.6311 171.958 41.298 182.793C42.9649 193.628 45.4653 223.632 45.4653 223.632C45.4653 223.632 45.4653 280.308 54.6333 281.141C63.8014 281.975 70.469 282.808 71.3025 279.474C72.136 276.14 67.1352 274.473 69.6356 272.806C72.136 271.14 72.9694 265.305 69.6356 258.638C66.3017 251.97 69.6356 184.46 69.6356 184.46L85.4713 226.966C85.4713 226.966 87.1382 261.972 88.8051 266.972C90.4721 271.973 87.1382 281.141 92.9724 281.975C98.8067 282.808 105.474 277.807 108.808 276.14C112.142 274.473 103.807 274.473 105.474 273.64C107.141 272.806 112.142 270.306 110.475 269.473C108.808 268.639 107.141 228.633 107.141 228.633C107.141 228.633 102.557 143.204 96.723 139.87C90.8888 136.536 87.1382 142.278 87.1382 142.278L41.298 151.121Z" fill="#2F2E41"/>
<path d="M56.3001 277.807V284.475C56.3001 284.475 48.799 302.6 56.3001 302.6C63.8013 302.6 69.6355 304.478 69.6355 301.978V279.474L56.3001 277.807Z" fill="#2F2E41"/>
<path d="M105.474 277.795V284.463C105.474 284.463 112.975 302.588 105.474 302.588C97.9729 302.588 92.1387 304.466 92.1387 301.966V279.462L105.474 277.795Z" fill="#2F2E41"/>
<path d="M62.5511 47.3558C70.8366 47.3558 77.5534 40.6391 77.5534 32.3536C77.5534 24.0681 70.8366 17.3513 62.5511 17.3513C54.2656 17.3513 47.5488 24.0681 47.5488 32.3536C47.5488 40.6391 54.2656 47.3558 62.5511 47.3558Z" fill="#A0616A"/>
<path d="M57.9672 60.2744C57.9672 60.2744 62.1345 72.7763 68.8022 70.2759L75.4699 67.7755L87.1383 147.788C87.1383 147.788 77.9702 161.123 64.6349 152.788C51.2995 144.454 57.9672 60.2744 57.9672 60.2744Z" fill="#6C63FF"/>
<path d="M69.6353 57.7741L73.3858 49.8562C73.3858 49.8562 95.4725 60.2744 98.8063 63.6083C102.14 66.9421 102.14 71.9429 102.14 71.9429L96.306 92.7793C96.306 92.7793 97.9729 138.62 97.9729 140.286C97.9729 141.953 103.807 151.121 99.6398 147.788C95.4725 144.454 94.639 141.12 91.3052 146.121C87.9714 151.121 80.4702 156.956 80.4702 156.956L69.6353 57.7741Z" fill="#3F3D56"/>
<path d="M98.8065 117.783L96.3061 141.12C96.3061 141.12 81.3039 154.455 84.6377 155.289C87.9715 156.122 89.6385 152.788 89.6385 152.788C89.6385 152.788 95.4727 158.623 98.8065 155.289C102.14 151.955 110.475 120.283 110.475 120.283L98.8065 117.783Z" fill="#A0616A"/>
<path d="M62.8704 11.1511C59.5446 11.0322 55.9854 10.9734 53.1813 12.7656C51.8911 13.6651 50.7595 14.7728 49.8328 16.0436C47.1017 19.4961 44.7419 23.8401 45.7564 28.1238L46.9346 27.6642C46.9346 28.8077 46.6804 29.9368 46.1904 30.9699C46.3564 30.4875 46.912 31.2674 46.7632 31.7554L45.4653 36.0135C47.599 35.2313 50.253 36.815 50.5779 39.0642C50.7262 34.1184 51.2393 28.4471 55.2513 25.5512C57.2746 24.0907 59.8352 23.6449 62.2988 23.249C64.5716 22.8838 66.9542 22.5355 69.1312 23.2837C71.3081 24.0319 73.1619 26.2583 72.6684 28.5067C73.6722 28.161 74.7948 28.8605 75.2909 29.7991C75.7869 30.7378 75.813 31.845 75.8279 32.9066C76.8979 33.6628 78.1155 32.1612 78.5516 30.9257C79.5752 28.0256 80.485 24.9384 79.9336 21.9128C79.3822 18.8872 76.9166 15.9957 73.8412 15.9855C74.2145 15.5754 74.4137 15.0363 74.3966 14.482L71.8617 14.2679C72.5052 14.1767 73.0971 13.8647 73.5358 13.3852C72.5181 14.5051 64.5162 11.2099 62.8704 11.1511Z" fill="#2F2E41"/>
<path d="M62.1342 55.2736C62.1342 55.2736 55.3493 48.6249 52.9075 49.0321C50.4657 49.4394 47.1319 55.2736 47.1319 55.2736C47.1319 55.2736 27.1289 61.9413 27.9624 68.609C28.7958 75.2766 37.9638 107.782 37.9638 107.782C37.9638 107.782 45.465 146.954 38.7973 151.121C32.1296 155.289 70.4687 166.124 71.3022 161.123C72.1357 156.122 73.8026 106.115 71.3022 98.6135C68.8018 91.1124 62.1342 55.2736 62.1342 55.2736Z" fill="#3F3D56"/>
<path d="M91.3052 68.609H101.611C101.611 68.609 108.808 100.28 109.641 103.614C110.475 106.948 112.142 122.784 111.308 122.784C110.475 122.784 93.8055 119.45 93.8055 121.95L91.3052 68.609Z" fill="#3F3D56"/>
<path d="M90.9566 147.038H51.5035C47.6535 129.327 47.3318 112.215 51.5035 95.866H90.9566C84.5898 111.921 84.1919 128.916 90.9566 147.038Z" fill="#F2F2F2"/>
<path d="M35.4634 125.284L47.1318 130.285C47.1318 130.285 69.6352 133.619 69.6352 124.451C69.6352 115.283 47.1318 120.284 47.1318 120.284L39.6302 117.885L35.4634 125.284Z" fill="#A0616A"/>
<path d="M37.9638 63.6083L27.9623 66.1087L20.4612 110.282C20.4612 110.282 17.9608 121.95 22.1281 122.784C26.2954 123.617 37.9638 130.285 37.9638 130.285C37.9638 130.285 39.6308 117.783 42.9646 117.783L34.63 111.115L39.6308 81.9444L37.9638 63.6083Z" fill="#3F3D56"/>
</g>
<defs>
<clipPath id="clip0_4_890">
<rect width="350" height="302.553" fill="white" transform="translate(0 0.723267)"/>
</clipPath>
</defs>
</svg>
